<?xml version="1.0" encoding="UTF-8" standalone="no"?>
<!-- Created with Inkscape (http://www.inkscape.org/) -->

<svg
   xmlns:dc="http://purl.org/dc/elements/1.1/"
   xmlns:cc="http://creativecommons.org/ns#"
   xmlns:rdf="http://www.w3.org/1999/02/22-rdf-syntax-ns#"
   xmlns:svg="http://www.w3.org/2000/svg"
   xmlns="http://www.w3.org/2000/svg"
   xmlns:xlink="http://www.w3.org/1999/xlink"
   xmlns:sodipodi="http://sodipodi.sourceforge.net/DTD/sodipodi-0.dtd"
   xmlns:inkscape="http://www.inkscape.org/namespaces/inkscape"
   id="svg4136"
   version="1.1"
   inkscape:version="0.91 r13725"
   width="694.6875"
   height="701.25"
   viewBox="0 0 694.6875 701.25"
   sodipodi:docname="multipleTarget.svg">
  <metadata
     id="metadata4142">
    <rdf:RDF>
      <cc:Work
         rdf:about="">
        <dc:format>image/svg+xml</dc:format>
        <dc:type
           rdf:resource="http://purl.org/dc/dcmitype/StillImage" />
        <dc:title />
      </cc:Work>
    </rdf:RDF>
  </metadata>
  <defs
     id="defs4140">
    <linearGradient
       id="linearGradient4721"
       inkscape:collect="always">
      <stop
         id="stop4723"
         offset="0"
         style="stop-color:#ff6600;stop-opacity:1" />
      <stop
         id="stop4725"
         offset="1"
         style="stop-color:#ff0000;stop-opacity:1" />
    </linearGradient>
    <linearGradient
       inkscape:collect="always"
       id="linearGradient4688">
      <stop
         style="stop-color:#008000;stop-opacity:1"
         offset="0"
         id="stop4690" />
      <stop
         style="stop-color:#00ff00;stop-opacity:1"
         offset="1"
         id="stop4692" />
    </linearGradient>
    <linearGradient
       inkscape:collect="always"
       id="linearGradient4655">
      <stop
         style="stop-color:#000080;stop-opacity:1"
         offset="0"
         id="stop4657" />
      <stop
         style="stop-color:#00ffff;stop-opacity:1"
         offset="1"
         id="stop4659" />
    </linearGradient>
    <linearGradient
       inkscape:collect="always"
       id="linearGradient4552">
      <stop
         style="stop-color:#ff0000;stop-opacity:1"
         offset="0"
         id="stop4554" />
      <stop
         id="stop4564"
         offset="0.36259076"
         style="stop-color:#ffff00;stop-opacity:1" />
      <stop
         id="stop4562"
         offset="0.4876354"
         style="stop-color:#00ff00;stop-opacity:1" />
      <stop
         id="stop4560"
         offset="0.59983474"
         style="stop-color:#008000;stop-opacity:1" />
      <stop
         id="stop4556"
         offset="0.79363132"
         style="stop-color:#00ffff;stop-opacity:1" />
      <stop
         style="stop-color:#000080;stop-opacity:1"
         offset="1"
         id="stop4558" />
    </linearGradient>
    <linearGradient
       id="linearGradient4507"
       inkscape:collect="always">
      <stop
         id="stop4509"
         offset="0"
         style="stop-color:#aa0000;stop-opacity:1" />
      <stop
         style="stop-color:#ff0000;stop-opacity:1"
         offset="0.60087228"
         id="stop4513" />
      <stop
         id="stop4511"
         offset="1"
         style="stop-color:#ff5555;stop-opacity:1" />
    </linearGradient>
    <linearGradient
       inkscape:collect="always"
       id="linearGradient4442">
      <stop
         style="stop-color:#ff0000;stop-opacity:1"
         offset="0"
         id="stop4444" />
      <stop
         style="stop-color:#ffaaaa;stop-opacity:1"
         offset="1"
         id="stop4446" />
    </linearGradient>
    <linearGradient
       id="linearGradient4257"
       inkscape:collect="always">
      <stop
         id="stop4259"
         offset="0"
         style="stop-color:#ff3636;stop-opacity:0.47843137" />
      <stop
         id="stop4261"
         offset="1"
         style="stop-color:#ff7d83;stop-opacity:0.12138728" />
    </linearGradient>
    <linearGradient
       inkscape:collect="always"
       id="linearGradient4224">
      <stop
         style="stop-color:#ff0000;stop-opacity:0.49019608"
         offset="0"
         id="stop4226" />
      <stop
         style="stop-color:#ffa74b;stop-opacity:0.26011559"
         offset="1"
         id="stop4228" />
    </linearGradient>
    <linearGradient
       inkscape:collect="always"
       xlink:href="#linearGradient4224"
       id="linearGradient4230-9-0"
       x1="236.64339"
       y1="294.76346"
       x2="6.737998"
       y2="97.733521"
       gradientUnits="userSpaceOnUse"
       gradientTransform="matrix(-1.2305738,0.03177186,-0.02771712,-1.0735274,378.40475,400.90656)" />
    <linearGradient
       gradientTransform="translate(96.095703,-30.066406)"
       inkscape:collect="always"
       xlink:href="#linearGradient4257"
       id="linearGradient4223-9"
       x1="174.82109"
       y1="233.13332"
       x2="5.2785625"
       y2="101.78004"
       gradientUnits="userSpaceOnUse" />
    <linearGradient
       gradientTransform="translate(-217.10938,-213.04492)"
       inkscape:collect="always"
       xlink:href="#linearGradient4257"
       id="linearGradient4304-8"
       gradientUnits="userSpaceOnUse"
       x1="278.15097"
       y1="306.85745"
       x2="606.6817"
       y2="526.12915" />
    <linearGradient
       gradientTransform="translate(-217.10938,-213.04492)"
       inkscape:collect="always"
       xlink:href="#linearGradient4442"
       id="linearGradient4304-0"
       gradientUnits="userSpaceOnUse"
       x1="278.15097"
       y1="306.85745"
       x2="606.6817"
       y2="526.12915" />
    <linearGradient
       gradientTransform="translate(-431.82422,-426.22852)"
       inkscape:collect="always"
       xlink:href="#linearGradient4507"
       id="linearGradient4505-1"
       gradientUnits="userSpaceOnUse"
       x1="503.91443"
       y1="508.81311"
       x2="500.77814"
       y2="730.54773" />
    <linearGradient
       gradientTransform="translate(-429.36133,-110.98047)"
       inkscape:collect="always"
       xlink:href="#linearGradient4552"
       id="linearGradient4550-4"
       gradientUnits="userSpaceOnUse"
       x1="508.84018"
       y1="421.79156"
       x2="508.16675"
       y2="165.72862" />
    <linearGradient
       inkscape:collect="always"
       xlink:href="#linearGradient4721"
       id="linearGradient4661"
       x1="133.69228"
       y1="207.26503"
       x2="233.63861"
       y2="283.83365"
       gradientUnits="userSpaceOnUse" />
    <linearGradient
       gradientTransform="translate(96.095703,-30.066406)"
       inkscape:collect="always"
       xlink:href="#linearGradient4655"
       id="linearGradient4661-7"
       x1="7.345006"
       y1="124.72282"
       x2="174.42711"
       y2="233.91023"
       gradientUnits="userSpaceOnUse" />
    <linearGradient
       gradientTransform="translate(-429.36133,-110.98047)"
       inkscape:collect="always"
       xlink:href="#linearGradient4688"
       id="linearGradient4694-1"
       x1="503.24756"
       y1="203.74944"
       x2="499.14178"
       y2="335.10272"
       gradientUnits="userSpaceOnUse" />
    <linearGradient
       gradientTransform="translate(96.095703,-30.066406)"
       inkscape:collect="always"
       xlink:href="#linearGradient4721"
       id="linearGradient4661-8"
       x1="7.345006"
       y1="124.72282"
       x2="174.42711"
       y2="233.91023"
       gradientUnits="userSpaceOnUse" />
    <linearGradient
       inkscape:collect="always"
       xlink:href="#linearGradient4721"
       id="linearGradient4761"
       gradientUnits="userSpaceOnUse"
       x1="594.23553"
       y1="521.2077"
       x2="263.82486"
       y2="291.38022" />
    <linearGradient
       inkscape:collect="always"
       xlink:href="#linearGradient4721"
       id="linearGradient4781"
       gradientUnits="userSpaceOnUse"
       x1="511.41321"
       y1="162.48688"
       x2="515.94562"
       y2="342.2767" />
    <linearGradient
       inkscape:collect="always"
       xlink:href="#linearGradient4721"
       id="linearGradient4792"
       gradientUnits="userSpaceOnUse"
       x1="505.6665"
       y1="702.67725"
       x2="504.45224"
       y2="580.35449"
       gradientTransform="matrix(1,0,0,0.67694153,0,137.69673)" />
  </defs>
  <sodipodi:namedview
     pagecolor="#ffffff"
     bordercolor="#666666"
     borderopacity="1"
     objecttolerance="10"
     gridtolerance="10"
     guidetolerance="10"
     inkscape:pageopacity="0"
     inkscape:pageshadow="2"
     inkscape:window-width="2560"
     inkscape:window-height="1377"
     id="namedview4138"
     showgrid="false"
     inkscape:zoom="0.70710678"
     inkscape:cx="289.67796"
     inkscape:cy="-40.852947"
     inkscape:window-x="-8"
     inkscape:window-y="-8"
     inkscape:window-maximized="1"
     inkscape:current-layer="svg4136" />
  <path
     style="fill:url(#linearGradient4761);fill-rule:evenodd;stroke:none;stroke-width:0.76842678;stroke-linecap:butt;stroke-linejoin:miter;stroke-opacity:1;fill-opacity:1;color:#000000;clip-rule:nonzero;display:inline;overflow:visible;visibility:visible;opacity:1;isolation:auto;mix-blend-mode:normal;color-interpolation:sRGB;color-interpolation-filters:linearRGB;solid-color:#000000;solid-opacity:1;stroke-miterlimit:4;stroke-dasharray:none;stroke-dashoffset:0;filter-blend-mode:normal;filter-gaussianBlur-deviation:0;color-rendering:auto;image-rendering:auto;shape-rendering:auto;text-rendering:auto;enable-background:accumulate"
     d="M 268.19336 213.04492 L 267.90039 213.875 C 271.56384 218.14717 275.15136 223.11942 277.0293 225.26562 C 280.01835 228.6817 306.92089 288.46253 308.62891 297.42969 C 310.33695 306.39685 308.2022 320.9149 303.07812 332.87109 C 297.95402 344.82731 278.31095 370.87568 265.92773 374.71875 C 257.09652 377.45947 240.69047 371.94359 228.89258 365.61328 L 650.16602 642.03906 L 712.85938 523.03516 L 268.19336 213.04492 z M 217.21289 357.58789 L 217.10938 357.88086 L 218.43359 358.75 C 218.16902 358.51924 217.91226 358.28911 217.67578 358.06445 C 217.51572 357.9124 217.36613 357.74819 217.21289 357.58789 z "
     id="path4263"
     inkscape:export-xdpi="300"
     inkscape:export-ydpi="300" />
  <path
     style="color:#000000;clip-rule:nonzero;display:inline;overflow:visible;visibility:visible;opacity:1;isolation:auto;mix-blend-mode:normal;color-interpolation:sRGB;color-interpolation-filters:linearRGB;solid-color:#000000;solid-opacity:1;fill:#ff0000;fill-opacity:1;fill-rule:evenodd;stroke:#930000;stroke-width:2.568;stroke-linecap:butt;stroke-linejoin:miter;stroke-miterlimit:4;stroke-dasharray:none;stroke-dashoffset:0;stroke-opacity:1;color-rendering:auto;image-rendering:auto;shape-rendering:auto;text-rendering:auto;enable-background:accumulate;filter-blend-mode:normal;filter-gaussianBlur-deviation:0"
     d="m 232.39701,201.45717 c -6.30348,0.33176 -14.34482,6.32665 -18.13708,12.70662 -3.93333,6.61725 -12.81023,22.20438 -14.94527,27.75547 -2.13503,5.55111 -5.97811,16.65331 -5.12409,26.47447 0.85403,9.82116 5.97811,27.32847 8.54015,33.73359 2.56205,6.40512 6.83212,10.67517 7.25912,19.21533 0.42701,8.54013 -0.85401,28.60948 7.68615,36.72262 8.54013,8.11313 35.86861,20.49635 48.25182,16.65329 12.38322,-3.84307 32.02555,-29.89051 37.14965,-41.84673 5.12408,-11.95619 7.25913,-26.47444 5.55109,-35.4416 -1.70802,-8.96716 -28.60949,-68.74818 -31.59854,-72.16425 -2.98906,-3.41605 -10.31269,-13.99641 -15.37228,-17.5073 -4.93864,-3.42696 -23.31378,-6.65132 -29.26072,-6.30151 z"
     id="path4146-1"
     inkscape:connector-curvature="0"
     sodipodi:nodetypes="csssssssssssc"
     inkscape:export-xdpi="300"
     inkscape:export-ydpi="300" />
  <path
     style="color:#000000;clip-rule:nonzero;display:inline;overflow:visible;visibility:visible;opacity:0.91500005;isolation:auto;mix-blend-mode:normal;color-interpolation:sRGB;color-interpolation-filters:linearRGB;solid-color:#000000;solid-opacity:1;fill:url(#linearGradient4661);fill-opacity:1;fill-rule:evenodd;stroke:none;stroke-width:0.76842678;stroke-linecap:butt;stroke-linejoin:miter;stroke-miterlimit:4;stroke-dasharray:none;stroke-dashoffset:0;stroke-opacity:1;color-rendering:auto;image-rendering:auto;shape-rendering:auto;text-rendering:auto;enable-background:accumulate"
     d="m 123.92773,107.06641 c -12.64796,13.65604 -90.860412,104.49798 -96.888105,114.81379 11.697168,9.64586 168.696315,119.96238 188.407235,133.77806 0.20245,-0.28598 -1.09065,-1.72288 -0.88346,-2.01015 -5.09924,-9.30107 -4.20535,-24.94998 -4.57317,-32.30631 -0.427,-8.54016 -4.69771,-12.80973 -7.25976,-19.21485 -2.56204,-6.40512 -7.68503,-23.91126 -8.53906,-33.73242 -0.85402,-9.82116 2.98801,-20.9235 5.12304,-26.47461 2.13504,-5.55109 11.01199,-21.13861 14.94532,-27.75586 3.79226,-6.37997 11.83323,-12.37527 18.13671,-12.70703 5.94694,-0.34981 24.32308,2.87382 29.26172,6.30078 3.98951,2.76835 9.35592,9.88965 12.92578,14.47071 -1.82373,-3.34937 -4.0359,-6.72179 -6.67968,-10.11329 -11.63928,-8.7245 -129.02425,-94.0772 -143.97657,-105.04882 z"
     id="path4146-0-9"
     inkscape:connector-curvature="0"
     sodipodi:nodetypes="ccccssssscsccc"
     inkscape:export-xdpi="300"
     inkscape:export-ydpi="300" />
  <path
     style="fill:url(#linearGradient4781);fill-rule:evenodd;stroke:none;stroke-width:0.76842678;stroke-linecap:butt;stroke-linejoin:miter;stroke-opacity:1;fill-opacity:1;color:#000000;clip-rule:nonzero;display:inline;overflow:visible;visibility:visible;opacity:0.919;isolation:auto;mix-blend-mode:normal;color-interpolation:sRGB;color-interpolation-filters:linearRGB;solid-color:#000000;solid-opacity:1;stroke-miterlimit:4;stroke-dasharray:none;stroke-dashoffset:0;filter-blend-mode:normal;filter-gaussianBlur-deviation:0;color-rendering:auto;image-rendering:auto;shape-rendering:auto;text-rendering:auto;enable-background:accumulate"
     d="M 573.84961 110.98047 L 429.36133 111.80273 L 430.18164 516.53516 L 431.62695 515.63867 C 431.52673 513.07731 432.20195 510.43239 433.68359 507.6543 C 437.84694 499.84802 445.0815 494.04365 447.68359 486.75781 C 450.28568 479.47195 466.47018 454.57119 469.07227 448.32617 C 471.67436 442.08115 477.40039 409.29492 477.40039 409.29492 C 478.77715 398.43456 478.57945 386.0943 483.64453 379.11133 C 489.21618 371.57324 496.68501 360.33642 512.78906 363.49805 C 528.91362 366.66371 560.66693 385.35601 565.87109 394.20312 C 570.46772 402.01739 575.05428 415.10957 573.55469 427.74219 L 574.66992 427.05078 L 573.84961 110.98047 z "
     id="path4330"
     inkscape:export-xdpi="300"
     inkscape:export-ydpi="300" />
  <path
     style="color:#000000;clip-rule:nonzero;display:inline;overflow:visible;visibility:visible;opacity:1;isolation:auto;mix-blend-mode:normal;color-interpolation:sRGB;color-interpolation-filters:linearRGB;solid-color:#000000;solid-opacity:1;fill:url(#linearGradient4792);fill-opacity:1;fill-rule:evenodd;stroke:none;stroke-width:0.76842678;stroke-linecap:butt;stroke-linejoin:miter;stroke-miterlimit:4;stroke-dasharray:none;stroke-dashoffset:0;stroke-opacity:1;color-rendering:auto;image-rendering:auto;shape-rendering:auto;text-rendering:auto;enable-background:accumulate"
     d="m 574.66992,426.22852 -1.02344,0.41383 c -0.18918,1.33576 -0.5079,2.66665 -1.00976,3.97703 -3.64293,9.51191 -13.5316,19.02372 -15.61328,22.54665 -2.08167,3.52292 -12.73846,13.79353 -13.7793,18.72563 -1.04083,4.93209 -3.91407,11.92425 -9.63867,18.26553 -5.7246,6.34127 -42.67439,19.0237 -57.24609,18.67142 -14.57171,-0.3523 -28.10299,-8.45529 -36.42969,-13.03509 -4.65457,-2.56009 -7.35371,-5.12019 -8.10547,-7.80335 l 0,193.87897 143.66797,-0.5553 -0.82227,-255.08532 z m -142.51172,57.66299 -0.33398,0.13486 0,0.84485 c 0.0848,-0.32421 0.19669,-0.65074 0.33398,-0.97971 z"
     id="path4306"
     inkscape:connector-curvature="0"
     inkscape:export-xdpi="300"
     inkscape:export-ydpi="300" />
  <path
     style="color:#000000;clip-rule:nonzero;display:inline;overflow:visible;visibility:visible;opacity:1;isolation:auto;mix-blend-mode:normal;color-interpolation:sRGB;color-interpolation-filters:linearRGB;solid-color:#000000;solid-opacity:1;fill:#ff0000;fill-opacity:1;fill-rule:evenodd;stroke:#930000;stroke-width:2.56800008;stroke-linecap:butt;stroke-linejoin:miter;stroke-miterlimit:4;stroke-dasharray:none;stroke-dashoffset:0;stroke-opacity:1;color-rendering:auto;image-rendering:auto;shape-rendering:auto;text-rendering:auto;enable-background:accumulate;filter-blend-mode:normal;filter-gaussianBlur-deviation:0"
     d="m 483.64466,379.11144 c 5.57165,-7.53809 13.03938,-18.77418 29.14343,-15.61255 16.12456,3.16566 47.87848,21.85756 53.08264,30.70467 5.20419,8.84712 10.40837,24.45967 6.76544,38.51095 -3.64293,14.0513 -13.53085,28.1026 -15.61253,33.30678 -2.08167,5.20418 -12.7392,20.37697 -13.78004,27.66283 -1.04083,7.28584 -3.91418,17.61353 -9.63878,26.98107 -5.72461,9.36753 -42.6743,28.10258 -57.246,27.58217 -14.57171,-0.52042 -28.10259,-12.49004 -36.42929,-19.25548 -8.32668,-6.76544 -10.40835,-13.53088 -6.24502,-21.33714 4.16335,-7.80628 11.39783,-13.61155 13.99992,-20.89739 2.60209,-7.28586 18.78644,-32.18527 21.38853,-38.43029 2.60209,-6.24502 8.3267,-39.03136 8.3267,-39.03136 1.37676,-10.86036 1.17992,-23.20129 6.245,-30.18426 z"
     id="path4157-1"
     inkscape:connector-curvature="0"
     sodipodi:nodetypes="cssssssssssscc"
     inkscape:export-xdpi="300"
     inkscape:export-ydpi="300" />
  <g
     inkscape:groupmode="layer"
     id="layer1"
     inkscape:label="CTV"
     style="display:none" />
  <g
     inkscape:groupmode="layer"
     id="layer2"
     inkscape:label="Tumors"
     style="display:inline">
    <path
       style="color:#000000;clip-rule:nonzero;display:inline;overflow:visible;visibility:visible;opacity:1;isolation:auto;mix-blend-mode:normal;color-interpolation:sRGB;color-interpolation-filters:linearRGB;solid-color:#000000;solid-opacity:1;fill:#7a7a7a;fill-opacity:1;fill-rule:evenodd;stroke:#000000;stroke-width:0.58143586;stroke-linecap:butt;stroke-linejoin:miter;stroke-miterlimit:4;stroke-dasharray:none;stroke-dashoffset:0;stroke-opacity:1;color-rendering:auto;image-rendering:auto;shape-rendering:auto;text-rendering:auto;enable-background:accumulate"
       d="m 491.57309,396.08391 c 4.21583,-5.70375 9.86634,-14.20562 22.05159,-11.81335 12.20077,2.39532 36.22757,16.53869 40.16537,23.23292 3.9378,6.69424 7.8756,18.50759 5.1191,29.1396 -2.7564,10.63202 -10.2382,21.26404 -11.8133,25.20182 -1.5751,3.93778 -11.8134,14.17602 -12.6009,19.68892 -0.7876,5.51288 -0.7876,14.56978 -5.1191,21.6578 -4.3316,7.08801 -32.28986,21.26403 -43.31565,20.87025 -11.02579,-0.39378 -21.26403,-9.45068 -27.56449,-14.5698 -6.30045,-5.11912 -7.87556,-10.23824 -4.72534,-16.14491 3.15023,-5.90668 11.41958,-9.05691 13.38847,-14.56979 1.96889,-5.5129 11.41957,-25.5956 13.38846,-30.32094 1.96889,-4.72534 6.30046,-29.53337 6.30046,-29.53337 1.04173,-8.21757 0.8928,-17.55543 4.72533,-22.83915 z"
       id="path4157-13"
       inkscape:connector-curvature="0"
       sodipodi:nodetypes="cssssssssssscc"
       inkscape:export-xdpi="300"
       inkscape:export-ydpi="300" />
    <path
       style="fill:#7a7a7a;fill-opacity:1;fill-rule:evenodd;stroke:#000000;stroke-width:1.21219063;stroke-linecap:butt;stroke-linejoin:miter;stroke-miterlimit:4;stroke-dasharray:none;stroke-opacity:1"
       d="m 236.17579,218.53787 c -5.06569,0.26661 -11.52799,5.08431 -14.57558,10.21147 -3.16095,5.31785 -10.29474,17.8442 -12.01053,22.30525 -1.71578,4.46106 -4.80421,13.38316 -4.11789,21.27579 0.68632,7.89262 4.80421,21.96209 6.86315,27.10946 2.05895,5.14737 5.49053,8.57894 5.83369,15.4421 0.34315,6.86315 -0.68632,22.99157 6.17684,29.51157 6.86315,6.51999 28.82525,16.47157 38.77682,13.38315 9.95158,-3.08842 25.73683,-24.02104 29.85473,-33.62946 4.11789,-9.60842 5.83368,-21.27578 4.46105,-28.4821 -1.37263,-7.20631 -22.99157,-55.24839 -25.39367,-57.99366 -2.40211,-2.74526 -8.28763,-11.24799 -12.35369,-14.06947 -3.96886,-2.75402 -18.73575,-5.34523 -23.51492,-5.0641 z"
       id="path4146-5"
       inkscape:connector-curvature="0"
       sodipodi:nodetypes="csssssssssssc"
       inkscape:export-xdpi="300"
       inkscape:export-ydpi="300" />
  </g>
  <flowRoot
     xml:space="preserve"
     id="flowRoot4808"
     style="fill:black;stroke:none;stroke-opacity:1;stroke-width:1px;stroke-linejoin:miter;stroke-linecap:butt;fill-opacity:1;font-family:Arial;font-style:normal;font-weight:normal;font-size:40px;line-height:125%;letter-spacing:0px;word-spacing:0px;-inkscape-font-specification:Arial;font-stretch:normal;font-variant:normal;"><flowRegion
       id="flowRegion4810"><rect
         id="rect4812"
         width="132.17424"
         height="82.916756"
         x="623.9281"
         y="153.67101"
         style="-inkscape-font-specification:Arial;font-family:Arial;font-weight:normal;font-style:normal;font-stretch:normal;font-variant:normal;" /></flowRegion><flowPara
       id="flowPara4814" /></flowRoot>  <flowRoot
     xml:space="preserve"
     id="flowRoot4816"
     style="font-style:normal;font-weight:normal;font-size:40px;line-height:125%;font-family:sans-serif;letter-spacing:0px;word-spacing:0px;fill:#000000;fill-opacity:1;stroke:none;stroke-width:1px;stroke-linecap:butt;stroke-linejoin:miter;stroke-opacity:1"
     transform="matrix(0.83141825,0,0,0.83141825,772.80499,-136.48079)"
     inkscape:export-xdpi="300"
     inkscape:export-ydpi="300"><flowRegion
       id="flowRegion4818"><rect
         id="rect4820"
         width="347.26523"
         height="205.2395"
         x="-395.70175"
         y="304.72729" /></flowRegion><flowPara
       id="flowPara4822"
       style="font-style:normal;font-variant:normal;font-weight:normal;font-stretch:normal;font-family:Arial;-inkscape-font-specification:Arial">Field 1</flowPara></flowRoot>  <flowRoot
     xml:space="preserve"
     id="flowRoot4816-4"
     style="font-style:normal;font-weight:normal;font-size:40px;line-height:125%;font-family:sans-serif;letter-spacing:0px;word-spacing:0px;fill:#000000;fill-opacity:1;stroke:none;stroke-width:1px;stroke-linecap:butt;stroke-linejoin:miter;stroke-opacity:1"
     transform="matrix(0.83141825,0,0,0.83141825,768.59138,377.88486)"
     inkscape:export-xdpi="300"
     inkscape:export-ydpi="300"><flowRegion
       id="flowRegion4818-2"><rect
         id="rect4820-0"
         width="347.26523"
         height="205.2395"
         x="-395.70175"
         y="304.72729" /></flowRegion><flowPara
       id="flowPara4822-0"
       style="font-style:normal;font-variant:normal;font-weight:normal;font-stretch:normal;font-family:Arial;-inkscape-font-specification:Arial">Field 2</flowPara></flowRoot>  <flowRoot
     xml:space="preserve"
     id="flowRoot4816-4-3"
     style="font-style:normal;font-weight:normal;font-size:33.25672913px;line-height:125%;font-family:sans-serif;letter-spacing:0px;word-spacing:0px;fill:#000000;fill-opacity:1;stroke:none;stroke-width:1px;stroke-linecap:butt;stroke-linejoin:miter;stroke-opacity:1"
     transform="translate(589.98831,521.62839)"
     inkscape:export-xdpi="300"
     inkscape:export-ydpi="300"><flowRegion
       id="flowRegion4818-2-2"><rect
         id="rect4820-0-5"
         width="288.72266"
         height="170.63986"
         x="-2.4362776"
         y="-8.8232803" /></flowRegion><flowPara
       id="flowPara4822-0-9"
       style="font-style:normal;font-variant:normal;font-weight:normal;font-stretch:normal;font-family:Arial;-inkscape-font-specification:Arial">Field 3</flowPara></flowRoot>  <flowRoot
     xml:space="preserve"
     id="flowRoot4816-4-1"
     style="font-style:normal;font-weight:normal;font-size:33.25672913px;line-height:125%;font-family:sans-serif;letter-spacing:0px;word-spacing:0px;fill:#000000;fill-opacity:1;stroke:none;stroke-width:1px;stroke-linecap:butt;stroke-linejoin:miter;stroke-opacity:1"
     transform="translate(67.715311,178.10383)"
     inkscape:export-xdpi="300"
     inkscape:export-ydpi="300"><flowRegion
       id="flowRegion4818-2-22"><rect
         id="rect4820-0-7"
         width="288.72266"
         height="170.63986"
         x="-2.4362776"
         y="-8.8232803" /></flowRegion><flowPara
       id="flowPara4822-0-97"
       style="font-style:normal;font-variant:normal;font-weight:normal;font-stretch:normal;font-family:Arial;-inkscape-font-specification:Arial">Field 4</flowPara></flowRoot></svg>
